<svg width="130" height="25" viewBox="0 0 130 25" fill="none" xmlns="http://www.w3.org/2000/svg">
<path d="M4.592 6.84C5.072 6.104 5.672 5.528 6.392 5.112C7.112 4.68 7.912 4.464 8.792 4.464V8.808H7.664C6.64 8.808 5.872 9.032 5.36 9.48C4.848 9.912 4.592 10.68 4.592 11.784V18H0.488V4.608H4.592V6.84ZM9.93763 11.28C9.93763 9.904 10.1936 8.696 10.7056 7.656C11.2336 6.616 11.9456 5.816 12.8416 5.256C13.7376 4.696 14.7376 4.416 15.8416 4.416C16.7856 4.416 17.6096 4.608 18.3136 4.992C19.0336 5.376 19.5856 5.88 19.9696 6.504V4.608H24.0736V18H19.9696V16.104C19.5696 16.728 19.0096 17.232 18.2896 17.616C17.5856 18 16.7616 18.192 15.8176 18.192C14.7296 18.192 13.7376 17.912 12.8416 17.352C11.9456 16.776 11.2336 15.968 10.7056 14.928C10.1936 13.872 9.93763 12.656 9.93763 11.28ZM19.9696 11.304C19.9696 10.28 19.6816 9.472 19.1056 8.88C18.5456 8.288 17.8576 7.992 17.0416 7.992C16.2256 7.992 15.5296 8.288 14.9536 8.88C14.3936 9.456 14.1136 10.256 14.1136 11.28C14.1136 12.304 14.3936 13.12 14.9536 13.728C15.5296 14.32 16.2256 14.616 17.0416 14.616C17.8576 14.616 18.5456 14.32 19.1056 13.728C19.6816 13.136 19.9696 12.328 19.9696 11.304ZM35.2027 4.464C36.7707 4.464 38.0187 4.976 38.9467 6C39.8907 7.008 40.3627 8.4 40.3627 10.176V18H36.2827V10.728C36.2827 9.832 36.0507 9.136 35.5867 8.64C35.1227 8.144 34.4987 7.896 33.7147 7.896C32.9307 7.896 32.3067 8.144 31.8427 8.64C31.3787 9.136 31.1467 9.832 31.1467 10.728V18H27.0427V4.608H31.1467V6.384C31.5627 5.792 32.1227 5.328 32.8267 4.992C33.5307 4.64 34.3227 4.464 35.2027 4.464ZM51.3986 18L47.3186 12.384V18H43.2146V0.24H47.3186V10.056L51.3746 4.608H56.4386L50.8706 11.328L56.4866 18H51.3986Z" fill="white"/>
<path d="M63.1385 4.416C64.0825 4.416 64.9065 4.608 65.6105 4.992C66.3305 5.376 66.8825 5.88 67.2665 6.504V4.608H71.3705V17.976C71.3705 19.208 71.1225 20.32 70.6265 21.312C70.1465 22.32 69.4025 23.12 68.3945 23.712C67.4025 24.304 66.1625 24.6 64.6745 24.6C62.6905 24.6 61.0825 24.128 59.8505 23.184C58.6185 22.256 57.9145 20.992 57.7385 19.392H61.7945C61.9225 19.904 62.2265 20.304 62.7065 20.592C63.1865 20.896 63.7785 21.048 64.4825 21.048C65.3305 21.048 66.0025 20.8 66.4985 20.304C67.0105 19.824 67.2665 19.048 67.2665 17.976V16.08C66.8665 16.704 66.3145 17.216 65.6105 17.616C64.9065 18 64.0825 18.192 63.1385 18.192C62.0345 18.192 61.0345 17.912 60.1385 17.352C59.2425 16.776 58.5305 15.968 58.0025 14.928C57.4905 13.872 57.2345 12.656 57.2345 11.28C57.2345 9.904 57.4905 8.696 58.0025 7.656C58.5305 6.616 59.2425 5.816 60.1385 5.256C61.0345 4.696 62.0345 4.416 63.1385 4.416ZM67.2665 11.304C67.2665 10.28 66.9785 9.472 66.4025 8.88C65.8425 8.288 65.1545 7.992 64.3385 7.992C63.5225 7.992 62.8265 8.288 62.2505 8.88C61.6905 9.456 61.4105 10.256 61.4105 11.28C61.4105 12.304 61.6905 13.12 62.2505 13.728C62.8265 14.32 63.5225 14.616 64.3385 14.616C65.1545 14.616 65.8425 14.32 66.4025 13.728C66.9785 13.136 67.2665 12.328 67.2665 11.304ZM87.5636 4.608V18H83.4596V16.176C83.0436 16.768 82.4756 17.248 81.7556 17.616C81.0516 17.968 80.2676 18.144 79.4036 18.144C78.3796 18.144 77.4756 17.92 76.6916 17.472C75.9076 17.008 75.2996 16.344 74.8676 15.48C74.4356 14.616 74.2196 13.6 74.2196 12.432V4.608H78.2996V11.88C78.2996 12.776 78.5316 13.472 78.9956 13.968C79.4596 14.464 80.0836 14.712 80.8676 14.712C81.6676 14.712 82.2996 14.464 82.7636 13.968C83.2276 13.472 83.4596 12.776 83.4596 11.88V4.608H87.5636ZM103.135 11.088C103.135 11.472 103.111 11.872 103.063 12.288H93.7754C93.8394 13.12 94.1034 13.76 94.5674 14.208C95.0474 14.64 95.6314 14.856 96.3194 14.856C97.3434 14.856 98.0554 14.424 98.4554 13.56H102.823C102.599 14.44 102.191 15.232 101.599 15.936C101.023 16.64 100.295 17.192 99.4154 17.592C98.5354 17.992 97.5514 18.192 96.4634 18.192C95.1514 18.192 93.9834 17.912 92.9594 17.352C91.9354 16.792 91.1354 15.992 90.5594 14.952C89.9834 13.912 89.6954 12.696 89.6954 11.304C89.6954 9.912 89.9754 8.696 90.5354 7.656C91.1114 6.616 91.9114 5.816 92.9354 5.256C93.9594 4.696 95.1354 4.416 96.4634 4.416C97.7594 4.416 98.9114 4.688 99.9194 5.232C100.927 5.776 101.711 6.552 102.271 7.56C102.847 8.568 103.135 9.744 103.135 11.088ZM98.9354 10.008C98.9354 9.304 98.6954 8.744 98.2154 8.328C97.7354 7.912 97.1354 7.704 96.4154 7.704C95.7274 7.704 95.1434 7.904 94.6634 8.304C94.1994 8.704 93.9114 9.272 93.7994 10.008H98.9354ZM110.749 18.192C109.581 18.192 108.541 17.992 107.629 17.592C106.717 17.192 105.997 16.648 105.469 15.96C104.941 15.256 104.645 14.472 104.581 13.608H108.637C108.685 14.072 108.901 14.448 109.285 14.736C109.669 15.024 110.141 15.168 110.701 15.168C111.213 15.168 111.605 15.072 111.877 14.88C112.165 14.672 112.309 14.408 112.309 14.088C112.309 13.704 112.109 13.424 111.709 13.248C111.309 13.056 110.661 12.848 109.765 12.624C108.805 12.4 108.005 12.168 107.365 11.928C106.725 11.672 106.173 11.28 105.709 10.752C105.245 10.208 105.013 9.48 105.013 8.568C105.013 7.8 105.221 7.104 105.637 6.48C106.069 5.84 106.693 5.336 107.509 4.968C108.341 4.6 109.325 4.416 110.461 4.416C112.141 4.416 113.461 4.832 114.421 5.664C115.397 6.496 115.957 7.6 116.101 8.976H112.309C112.245 8.512 112.037 8.144 111.685 7.872C111.349 7.6 110.901 7.464 110.341 7.464C109.861 7.464 109.493 7.56 109.237 7.752C108.981 7.928 108.853 8.176 108.853 8.496C108.853 8.88 109.053 9.168 109.453 9.36C109.869 9.552 110.509 9.744 111.373 9.936C112.365 10.192 113.173 10.448 113.797 10.704C114.421 10.944 114.965 11.344 115.429 11.904C115.909 12.448 116.157 13.184 116.173 14.112C116.173 14.896 115.949 15.6 115.501 16.224C115.069 16.832 114.437 17.312 113.605 17.664C112.789 18.016 111.837 18.192 110.749 18.192ZM124.131 18.192C122.963 18.192 121.923 17.992 121.011 17.592C120.099 17.192 119.379 16.648 118.851 15.96C118.323 15.256 118.027 14.472 117.963 13.608H122.019C122.067 14.072 122.283 14.448 122.667 14.736C123.051 15.024 123.523 15.168 124.083 15.168C124.595 15.168 124.987 15.072 125.259 14.88C125.547 14.672 125.691 14.408 125.691 14.088C125.691 13.704 125.491 13.424 125.091 13.248C124.691 13.056 124.043 12.848 123.147 12.624C122.187 12.4 121.387 12.168 120.747 11.928C120.107 11.672 119.555 11.28 119.091 10.752C118.627 10.208 118.395 9.48 118.395 8.568C118.395 7.8 118.603 7.104 119.019 6.48C119.451 5.84 120.075 5.336 120.891 4.968C121.723 4.6 122.707 4.416 123.843 4.416C125.523 4.416 126.843 4.832 127.803 5.664C128.779 6.496 129.339 7.6 129.483 8.976H125.691C125.627 8.512 125.419 8.144 125.067 7.872C124.731 7.6 124.283 7.464 123.723 7.464C123.243 7.464 122.875 7.56 122.619 7.752C122.363 7.928 122.235 8.176 122.235 8.496C122.235 8.88 122.435 9.168 122.835 9.36C123.251 9.552 123.891 9.744 124.755 9.936C125.747 10.192 126.555 10.448 127.179 10.704C127.803 10.944 128.347 11.344 128.811 11.904C129.291 12.448 129.539 13.184 129.555 14.112C129.555 14.896 129.331 15.6 128.883 16.224C128.451 16.832 127.819 17.312 126.987 17.664C126.171 18.016 125.219 18.192 124.131 18.192Z" fill="url(#paint0_linear_1_3)"/>
<defs>
<linearGradient id="paint0_linear_1_3" x1="65" y1="-8" x2="65" y2="28" gradientUnits="userSpaceOnUse">
<stop stop-color="#9AB0FF"/>
<stop offset="1" stop-color="#2C55EE"/>
</linearGradient>
</defs>
</svg>
